<?xml version="1.0" standalone="no"?>
<!DOCTYPE svg PUBLIC "-//W3C//DTD SVG 20010904//EN"
 "http://www.w3.org/TR/2001/REC-SVG-20010904/DTD/svg10.dtd">
<svg version="1.0" xmlns="http://www.w3.org/2000/svg"
 width="750.000000pt" height="750.000000pt" viewBox="0 0 750.000000 750.000000"
 preserveAspectRatio="xMidYMid meet">

<g transform="translate(0.000000,750.000000) scale(0.100000,-0.100000)"
fill="#000000" stroke="none">
<path d="M2762 4275 c-121 -44 -216 -140 -262 -263 -19 -49 -23 -86 -29 -272
l-6 -215 -19 60 -19 60 -13 -58 c-8 -31 -20 -70 -28 -86 -38 -73 -144 -140
-221 -141 l-40 -1 52 -49 c235 -219 618 -118 713 189 18 58 20 93 20 432 l0
369 -42 -1 c-24 0 -71 -11 -106 -24z"/>
<path d="M2145 4245 c-46 -22 -73 -49 -95 -97 -24 -54 -25 -101 -1 -153 36
-79 124 -124 216 -110 82 12 155 104 155 195 -1 60 -63 147 -123 169 -39 15
-116 13 -152 -4z"/>
<path d="M3357 4109 c-42 -10 -101 -39 -133 -66 -58 -48 -73 -152 -28 -197 38
-37 104 -37 133 0 25 31 26 53 7 79 -14 19 -14 19 -49 0 -30 -16 -38 -17 -51
-6 -20 17 -20 60 0 89 33 47 134 78 162 50 15 -15 15 -152 2 -324 -15 -201 9
-282 99 -326 60 -29 149 -29 216 1 42 18 50 19 57 7 22 -39 123 -40 199 0 36
18 38 28 3 20 -53 -14 -54 -10 -54 329 l0 314 -27 21 c-33 26 -81 24 -157 -5
-54 -21 -60 -34 -13 -31 l32 1 3 -297 2 -297 -29 -16 c-46 -23 -107 -20 -136
9 -43 43 -49 92 -36 291 16 253 15 277 -11 310 -39 50 -103 65 -191 44z"/>
<path d="M4170 4000 c-17 -40 -80 -96 -119 -105 -37 -8 -42 -35 -6 -35 l25 0
0 -195 c0 -250 11 -277 115 -277 54 0 97 22 123 64 25 40 20 49 -11 20 -27
-26 -62 -29 -71 -6 -3 9 -6 101 -6 205 l0 189 59 0 c71 0 94 17 89 64 -2 23
-8 32 -26 34 -28 4 -43 -26 -19 -40 32 -18 16 -28 -43 -28 l-60 0 0 70 c0 62
-2 70 -19 70 -11 0 -23 -12 -31 -30z"/>
<path d="M4490 3890 c-75 -13 -113 -52 -113 -113 0 -44 30 -104 73 -142 37
-34 90 -112 90 -134 0 -57 -91 -82 -144 -40 -38 30 -53 19 -20 -15 43 -43 83
-59 144 -59 78 0 124 24 151 79 37 78 20 119 -100 241 -71 74 -85 108 -51 135
27 22 50 23 76 3 18 -15 18 -15 1 -29 -30 -23 -18 -51 23 -51 29 0 36 4 38 24
5 35 -5 65 -28 79 -30 18 -99 29 -140 22z"/>
<path d="M4909 3889 c-57 -9 -81 -21 -108 -55 -38 -48 -16 -114 38 -114 52 0
69 48 27 76 -31 20 -24 40 20 54 81 27 146 -50 99 -117 -9 -12 -58 -42 -109
-66 -96 -46 -114 -64 -129 -127 -8 -35 8 -99 31 -122 44 -45 134 -40 193 9 25
22 32 24 40 12 5 -8 9 -18 9 -22 0 -4 15 -14 34 -22 42 -18 91 -6 131 31 28
26 28 47 0 24 -10 -8 -19 -9 -25 -4 -5 5 -10 86 -12 179 -3 147 -6 174 -22
198 -37 54 -124 81 -217 66z m79 -231 c7 -7 12 -42 12 -85 0 -65 -3 -77 -25
-98 -55 -56 -92 -12 -87 103 1 22 12 43 31 63 32 31 50 36 69 17z"/>
<path d="M5288 3890 c-34 -6 -88 -34 -88 -46 0 -3 8 -3 19 1 29 9 41 -16 56
-118 40 -269 105 -367 220 -336 88 25 165 215 165 407 0 80 -8 95 -46 90 -32
-3 -31 10 -18 -147 10 -114 -32 -241 -80 -241 -37 0 -59 59 -86 224 -26 156
-48 181 -142 166z"/>
<path d="M2282 3601 c1 -74 -64 -121 -168 -121 -49 0 -55 -2 -44 -15 7 -8 27
-15 46 -15 120 0 201 56 191 133 -8 57 -26 70 -25 18z"/>
</g>
</svg>
